<svg width="22" height="20" viewBox="0 0 22 20" fill="none" xmlns="http://www.w3.org/2000/svg">
<path d="M8.84263 0H2.1142C1.81679 0 1.53155 0.117063 1.32125 0.325437C1.11095 0.533811 0.992798 0.816426 0.992798 1.11111V7.77778C0.992798 8.07246 1.11095 8.35508 1.32125 8.56345C1.53155 8.77183 1.81679 8.88889 2.1142 8.88889H8.84263C9.14004 8.88889 9.42527 8.77183 9.63558 8.56345C9.84588 8.35508 9.96403 8.07246 9.96403 7.77778V1.11111C9.96403 0.816426 9.84588 0.533811 9.63558 0.325437C9.42527 0.117063 9.14004 0 8.84263 0ZM7.72122 6.66667H3.23561V2.22222H7.72122V6.66667ZM20.0567 0H13.3282C13.0308 0 12.7456 0.117063 12.5353 0.325437C12.325 0.533811 12.2068 0.816426 12.2068 1.11111V7.77778C12.2068 8.07246 12.325 8.35508 12.5353 8.56345C12.7456 8.77183 13.0308 8.88889 13.3282 8.88889H20.0567C20.3541 8.88889 20.6393 8.77183 20.8496 8.56345C21.0599 8.35508 21.1781 8.07246 21.1781 7.77778V1.11111C21.1781 0.816426 21.0599 0.533811 20.8496 0.325437C20.6393 0.117063 20.3541 0 20.0567 0ZM18.9353 6.66667H14.4496V2.22222H18.9353V6.66667ZM8.84263 11.1111H2.1142C1.81679 11.1111 1.53155 11.2282 1.32125 11.4365C1.11095 11.6449 0.992798 11.9275 0.992798 12.2222V18.8889C0.992798 19.1836 1.11095 19.4662 1.32125 19.6746C1.53155 19.8829 1.81679 20 2.1142 20H8.84263C9.14004 20 9.42527 19.8829 9.63558 19.6746C9.84588 19.4662 9.96403 19.1836 9.96403 18.8889V12.2222C9.96403 11.9275 9.84588 11.6449 9.63558 11.4365C9.42527 11.2282 9.14004 11.1111 8.84263 11.1111ZM7.72122 17.7778H3.23561V13.3333H7.72122V17.7778ZM16.6925 11.1111C14.2186 11.1111 12.2068 13.1044 12.2068 15.5556C12.2068 18.0067 14.2186 20 16.6925 20C19.1663 20 21.1781 18.0067 21.1781 15.5556C21.1781 13.1044 19.1663 11.1111 16.6925 11.1111ZM16.6925 17.7778C15.4555 17.7778 14.4496 16.7811 14.4496 15.5556C14.4496 14.33 15.4555 13.3333 16.6925 13.3333C17.9294 13.3333 18.9353 14.33 18.9353 15.5556C18.9353 16.7811 17.9294 17.7778 16.6925 17.7778Z" fill="#212529"/>
</svg>
