<svg width="20" height="22" viewBox="0 0 20 22" fill="none" xmlns="http://www.w3.org/2000/svg">
<path d="M10.1315 11C12.9131 11 15.168 8.76142 15.168 6C15.168 3.23858 12.9131 1 10.1315 1C7.34989 1 5.09497 3.23858 5.09497 6C5.09497 8.76142 7.34989 11 10.1315 11Z" stroke="#212529" stroke-width="2"/>
<path d="M15.1679 13H15.5225C16.2589 13.0002 16.9699 13.2674 17.5219 13.7513C18.0739 14.2352 18.4289 14.9026 18.5202 15.628L18.9141 18.752C18.9495 19.0334 18.9242 19.3191 18.8399 19.5901C18.7556 19.8611 18.6143 20.1112 18.4252 20.3238C18.2361 20.5364 18.0036 20.7066 17.7431 20.8232C17.4827 20.9398 17.2003 21.0001 16.9146 21H3.34829C3.0626 21.0001 2.78017 20.9398 2.51973 20.8232C2.25929 20.7066 2.02681 20.5364 1.83772 20.3238C1.64862 20.1112 1.50724 19.8611 1.42294 19.5901C1.33865 19.3191 1.31337 19.0334 1.3488 18.752L1.74165 15.628C1.83301 14.9022 2.1883 14.2346 2.74072 13.7506C3.29314 13.2667 4.00462 12.9997 4.74138 13H5.09494" stroke="#212529" stroke-width="2" stroke-linecap="round" stroke-linejoin="round"/>
</svg>
