<svg width="21" height="20" viewBox="0 0 21 20" fill="none" xmlns="http://www.w3.org/2000/svg">
<path d="M3.98803 8.19984C4.02179 7.78217 4.21278 7.39246 4.52296 7.10831C4.83315 6.82416 5.23976 6.66642 5.66182 6.6665H15.7835C16.2056 6.66642 16.6122 6.82416 16.9224 7.10831C17.2325 7.39246 17.4235 7.78217 17.4573 8.19984L18.1314 16.5332C18.1499 16.7625 18.1204 16.9932 18.0448 17.2106C17.9691 17.4281 17.8489 17.6276 17.6918 17.7967C17.5346 17.9658 17.3439 18.1008 17.1316 18.1931C16.9194 18.2854 16.6901 18.3331 16.4584 18.3332H4.98693C4.75519 18.3331 4.52597 18.2854 4.3137 18.1931C4.10144 18.1008 3.91073 17.9658 3.75357 17.7967C3.59642 17.6276 3.47623 17.4281 3.40058 17.2106C3.32492 16.9932 3.29544 16.7625 3.31397 16.5332L3.98803 8.19984V8.19984Z" stroke="#212529" stroke-width="2" stroke-linecap="round" stroke-linejoin="round"/>
<path d="M14.0803 9.1665V4.99984C14.0803 4.11578 13.7266 3.26794 13.0969 2.64281C12.4672 2.01769 11.6132 1.6665 10.7227 1.6665C9.83215 1.6665 8.97811 2.01769 8.34843 2.64281C7.71874 3.26794 7.36499 4.11578 7.36499 4.99984V9.1665" stroke="#212529" stroke-width="2" stroke-linecap="round" stroke-linejoin="round"/>
</svg>
